<?xml version="1.0" encoding="UTF-8" standalone="no"?>
<svg
   xmlns:dc="http://purl.org/dc/elements/1.1/"
   xmlns:cc="http://creativecommons.org/ns#"
   xmlns:rdf="http://www.w3.org/1999/02/22-rdf-syntax-ns#"
   xmlns:svg="http://www.w3.org/2000/svg"
   xmlns="http://www.w3.org/2000/svg"
   xmlns:sodipodi="http://sodipodi.sourceforge.net/DTD/sodipodi-0.dtd"
   xmlns:inkscape="http://www.inkscape.org/namespaces/inkscape"
   class="c-branding__logo"
   id="AC_logo"
   version="1.1"
   x="0px"
   y="0px"
   viewBox="0 0 55 40"
   xml:space="preserve"
   sodipodi:docname="ActiveCollab_notext.svg"
   inkscape:version="0.92.1 r15371"
   width="55"
   height="40"><metadata
     id="metadata16"><rdf:RDF><cc:Work
         rdf:about=""><dc:format>image/svg+xml</dc:format><dc:type
           rdf:resource="http://purl.org/dc/dcmitype/StillImage" /><dc:title></dc:title></cc:Work></rdf:RDF></metadata><defs
     id="defs14" /><sodipodi:namedview
     pagecolor="#ffffff"
     bordercolor="#666666"
     borderopacity="1"
     objecttolerance="10"
     gridtolerance="10"
     guidetolerance="10"
     inkscape:pageopacity="0"
     inkscape:pageshadow="2"
     inkscape:window-width="1597"
     inkscape:window-height="817"
     id="namedview12"
     showgrid="false"
     inkscape:zoom="1.6666667"
     inkscape:cx="-26.099998"
     inkscape:cy="20"
     inkscape:window-x="0"
     inkscape:window-y="0"
     inkscape:window-maximized="0"
     inkscape:current-layer="AC_logo" /><g
     id="g9"
     style="fill:none;fill-rule:evenodd;stroke:none;stroke-width:1"><g
       id="ac_logo_website_header_black"
       style="fill:#000000"><g
         id="symbol"><path
           class="st0"
           d="M 16.218417,7.8723887 13.537794,13.16714 c 2.151227,1.434371 4.049264,3.18234 5.656487,4.93031 l 2.905485,-5.763126 c 0.23814,-0.489522 0.728584,-0.799072 1.265506,-0.799072 h 1.168567 c 0.537365,0 1.027809,0.30955 1.265949,0.799072 l 2.838203,5.624549 c 1.734261,-1.806911 3.660185,-3.401905 5.735278,-4.758888 L 31.675825,7.8723887 C 29.82515,4.2176243 28.109037,3.3321661 25.589534,2.977173 25.14778,2.915083 24.457263,2.8700902 23.9469,2.8700902 c -0.509921,0 -1.200438,0.044993 -1.642192,0.1070828 -3.265793,0.4607262 -4.658779,2.0755175 -6.086291,4.8952157 z m 7.684661,16.3697273 c 0.814457,-1.398376 1.718769,-2.725663 2.709396,-3.970614 l -2.662918,-5.478322 -2.749233,5.656044 c 1.132714,1.43077 2.04278,2.758958 2.702755,3.792892 z M 10.978011,14.932208 10.398596,14.591612 C 10.071485,14.399493 9.9506448,13.98016 10.123274,13.638665 l 3.584493,-7.0796159 h 4.43e-4 C 15.431847,3.1544446 17.487464,0.75857846 21.917398,0.13452845 22.488403,0.05399135 23.303745,0 23.9469,0 c 0.643597,0 1.458939,0.05399135 2.029944,0.13452845 4.429934,0.62405001 6.485551,3.01991615 8.209188,6.42452065 l 2.628835,5.1912679 c 4.307766,-2.3121792 9.132534,-3.6606131 14.15472,-3.8306859 0.86713,-0.029245 1.586419,0.7509297 1.439905,1.6755316 -0.109774,0.6897393 -0.728584,1.1707123 -1.41556,1.1954583 -10.735331,0.389638 -20.484905,6.652634 -25.457515,16.360279 -0.01062,0.02115 -0.0239,0.03959 -0.03585,0.05894 0.0013,9e-4 0.0018,0.0013 0.0027,0.0023 -0.01195,0.02115 -0.027,0.03959 -0.03984,0.05984 -0.01638,0.02565 -0.03231,0.05129 -0.05002,0.07514 -0.335964,0.480074 -0.880853,0.772977 -1.463366,0.772977 h -0.0058 c -0.535594,0 -1.041973,-0.24971 -1.373953,-0.676692 L 22.39058,27.21164 C 21.256981,25.239606 17.083777,18.523982 10.978011,14.932208 Z m 39.97117,3.306025 c 0.875983,-0.04319 1.599699,0.730233 1.464251,1.659334 -0.100922,0.691089 -0.713977,1.174312 -1.400511,1.211206 -2.831563,0.151176 -5.625503,0.970944 -8.183073,2.30993 0.05179,0.09718 0.106676,0.201568 0.169531,0.319449 0.798521,1.507708 2.18354,4.143386 4.116546,7.833245 1.024267,1.956286 1.038432,3.965214 0.03807,5.657843 -0.947248,1.604443 -2.731527,2.68202 -4.43923,2.68202 0,0 -2.690804,0.0018 -2.792169,0.0018 -2.086159,0 -5.046973,-0.192569 -6.832137,-4.630658 l -0.459903,-1.141017 c -0.657319,0.991641 -1.367312,1.971134 -2.02596,2.859742 -2.111389,2.847593 -4.539708,2.911933 -6.518749,2.911933 h -0.279305 c -1.97727,0 -4.405589,-0.06389 -6.516536,-2.911933 -0.694058,-0.9363 -1.337213,-1.901396 -1.957351,-2.854793 l -0.543119,1.172062 c -1.786934,4.402995 -4.737125,4.594664 -6.8179728,4.594664 -0.1013644,0 -2.7921688,-0.0018 -2.7921688,-0.0018 -1.7077024,0 -3.4919815,-1.077577 -4.43922959,-2.68202 -0.9999222,-1.692629 -0.98620038,-3.701557 0.038067,-5.657843 L 3.374751,26.615441 5.9978315,21.608193 C 6.1828547,21.255 6.6161986,21.118671 6.960572,21.31304 c 2.6354744,1.487912 6.594883,4.677901 10.190885,10.420781 0.780373,1.2472 1.550123,2.403065 2.39335,3.540033 1.313311,1.771816 2.608031,1.770916 4.401163,1.769116 1.793575,9e-4 3.090508,0.0023 4.403819,-1.769116 1.046399,-1.411874 2.226918,-3.055461 3.043587,-4.535724 3.973131,-7.202896 11.649382,-12.10981 19.555805,-12.499897 z m -6.325758,14.682048 c -2.454878,-4.68645 -3.642922,-6.941038 -4.21791,-8.025365 -2.346431,1.647186 -4.393195,3.761848 -5.941548,6.225203 l 1.23939,3.075257 c 1.151305,2.861992 2.558013,2.856143 4.503856,2.846694 l 2.507551,-9e-4 c 0.609515,0 1.524007,-0.452177 2.018878,-1.289493 0.48292,-0.817069 0.445738,-1.770017 -0.110217,-2.831396 z m -32.432625,1.275995 c 0.0071,-0.01845 0.938838,-2.030075 1.317737,-2.846694 -1.609879,-2.396766 -3.356534,-4.644156 -5.987139,-6.543301 L 5.8672529,27.963875 3.2707307,32.92073 c -0.5559549,1.06093 -0.5931366,2.013878 -0.1102171,2.830947 0.4948707,0.837316 1.4093635,1.289493 2.0188778,1.289493 l 2.5075517,9e-4 c 1.9480556,0.0094 3.3525499,0.0153 4.5038549,-2.845794 z"
           id="logo_symbol"
           inkscape:connector-curvature="0" /><g
           id="senka-copy"
           transform="translate(3.270523,23.415396)"
           style="opacity:0.2;fill-rule:nonzero"><path
             class="st1"
             d="M 11.017877,12.963181 C 6.9242002,7.9264943 3.2515865,4.7274918 3.5830324e-5,3.3661737 -0.00522156,3.3639726 0.56808497,2.2692054 1.7199554,0.08187201 2.8058902,0.5297273 3.6290025,0.9604633 4.1892925,1.37408 c 2.970023,2.1925275 5.2006782,5.0108229 7.8371305,9.399887 0.01987,0.03307 -0.316317,0.762808 -1.008546,2.189214 z"
             id="Combined-Shape"
             inkscape:connector-curvature="0" /><path
             class="st1"
             d="M 40.410429,12.998808 C 36.295532,7.9460123 32.612309,4.7389556 29.360758,3.3776375 c -0.0053,-0.0022 0.58968,-1.127159 1.784811,-3.37487355 1.047896,0.57828358 1.854322,1.07053585 2.419278,1.47675665 2.755676,1.9814177 3.982938,3.342996 5.948811,6.2220066 0.705781,1.033613 1.230329,1.9101933 1.831956,3.0285908 0.01833,0.03408 -0.293397,0.790307 -0.935185,2.26869 z"
             id="Combined-Shape-Copy"
             transform="matrix(-1,0,0,1,70.7071,0)"
             inkscape:connector-curvature="0" /></g></g></g></g></svg>