<svg class="c-branding__logo" id="AC_logo" version="1.1" xmlns="http://www.w3.org/2000/svg" xmlns:xlink="http://www.w3.org/1999/xlink" x="0px" y="0px" viewBox="0 0 210 40" style="" xml:space="preserve">
          <g stroke="none" stroke-width="1" fill="none" fill-rule="evenodd">
            <g id="ac_logo_website_header_black" fill="#000000">
              <path class="st0" d="M203.460842,28.4818616 C205.964445,28.4818616 207.604307,26.5381524 207.604307,24.166637 C207.604307,21.7815816 205.939783,19.8632239 203.460842,19.8632239 C201.020778,19.8632239 199.318247,21.7182029 199.318247,24.166637 C199.318247,26.6268825 201.020778,28.4818616 203.460842,28.4818616 Z M203.702527,17.920667 C207.082928,17.920667 209.738854,20.545409 209.738854,24.166637 C209.738854,27.7875768 207.082928,30.4123189 203.702527,30.4123189 C201.782682,30.4123189 200.399882,29.680295 199.445908,28.5573399 L199.445908,29.4282207 C199.445908,29.8324039 199.116601,30.1602446 198.709537,30.1602446 L198.111271,30.1602446 C197.705078,30.1602446 197.3749,29.8324039 197.3749,29.4282207 L197.3749,12.7210215 C197.3749,12.3179907 197.705078,11.99015 198.111271,11.99015 L198.709537,11.99015 C199.116601,11.99015 199.445908,12.3179907 199.445908,12.7210215 L199.445908,19.7753579 C200.399882,18.6526909 201.782682,17.920667 203.702527,17.920667 Z M194.489504,18.9046211 L194.489504,29.4283647 C194.489504,29.8325479 194.160197,30.1603886 193.753133,30.1603886 L193.142392,30.1603886 C192.735328,30.1603886 192.406311,29.8325479 192.406311,29.4283647 L192.406311,28.5571958 C191.440731,29.6804391 190.042264,30.412463 188.148531,30.412463 C184.742017,30.412463 182.111043,27.7874328 182.111043,24.1664929 C182.111043,20.5455531 184.742017,17.9205229 188.148531,17.9205229 C190.042264,17.9205229 191.440731,18.6401592 192.406311,19.7878896 L192.406311,18.9046211 C192.406311,18.5004379 192.735328,18.1725973 193.142392,18.1725973 L193.753133,18.1725973 C194.160197,18.1725973 194.489504,18.5004379 194.489504,18.9046211 Z M192.531651,24.1664929 C192.531651,21.718347 190.828829,19.8630798 188.389056,19.8630798 C185.873267,19.8630798 184.234275,21.7817256 184.234275,24.1664929 C184.234275,26.5380083 185.899959,28.4817176 188.389056,28.4817176 C190.828829,28.4817176 192.531651,26.6267385 192.531651,24.1664929 Z M179.938111,12.7210215 L179.938111,29.4282207 C179.938111,29.8324039 179.607933,30.1602446 179.200869,30.1602446 L178.602314,30.1602446 C178.19641,30.1602446 177.866233,29.8324039 177.866233,29.4282207 L177.866233,12.7210215 C177.866233,12.3179907 178.19641,11.99015 178.602314,11.99015 L179.200869,11.99015 C179.607933,11.99015 179.938111,12.3179907 179.938111,12.7210215 Z M174.776115,12.7210215 L174.776115,29.4282207 C174.776115,29.8324039 174.447098,30.1602446 174.040034,30.1602446 L173.441479,30.1602446 C173.035285,30.1602446 172.705398,29.8324039 172.705398,29.4282207 L172.705398,12.7210215 C172.705398,12.3179907 173.035285,11.99015 173.441479,11.99015 L174.040034,11.99015 C174.447098,11.99015 174.776115,12.3179907 174.776115,12.7210215 Z M164.261387,17.9205229 C167.920611,17.9205229 170.652263,20.5953918 170.652263,24.1664929 C170.652263,27.7375941 167.920611,30.412463 164.261387,30.412463 C160.601002,30.412463 157.881535,27.7375941 157.881535,24.1664929 C157.881535,20.5953918 160.601002,17.9205229 164.261387,17.9205229 Z M168.518006,24.1664929 C168.518006,21.6549683 166.674467,19.8630798 164.261387,19.8630798 C161.833799,19.8630798 160.003607,21.6549683 160.003607,24.1664929 C160.003607,26.6768653 161.833799,28.4817176 164.261387,28.4817176 C166.674467,28.4817176 168.518006,26.6768653 168.518006,24.1664929 Z M156.856941,15.2510413 C157.119226,15.5826271 157.035956,16.0677621 156.683148,16.3034156 L156.012639,16.7516758 C155.70016,16.9599612 155.279749,16.90148 155.038064,16.6148355 C153.85459,15.2089809 152.100414,14.361723 150.021573,14.361723 C146.107317,14.361723 143.146165,17.176313 143.146165,21.3273292 C143.146165,25.4783454 146.107317,28.2920712 150.021573,28.2920712 C152.057473,28.2920712 153.821804,27.4721814 155.00934,26.0723766 C155.257989,25.7785299 155.694067,25.7252342 156.006546,25.9522452 L156.649202,26.4175024 C156.990405,26.6646793 157.057427,27.1495263 156.787018,27.4710291 C154.814948,29.8232428 151.35824,30.9839371 147.663038,30.1611664 C143.942885,29.3311937 141.233574,26.1971174 140.863647,22.4298304 C140.287723,16.5629802 144.321225,12.2301824 150.021573,12.2301824 C152.831562,12.2301824 155.363019,13.3603397 156.856941,15.2510413 Z M138.147053,24.1286962 L138.147053,24.1727732 C138.142991,24.5746517 137.809913,24.8984592 137.40488,24.8984592 L128.61601,24.8984592 C128.922396,27.3843443 130.638274,28.607265 132.721467,28.607265 C133.903781,28.607265 134.980484,28.2419732 135.901673,27.6050174 C136.220245,27.3843443 136.658354,27.4557894 136.896847,27.7611594 L137.115902,28.0397376 C137.365711,28.3592238 137.310294,28.8239049 136.98534,29.0679128 C135.631264,30.0825481 134.142564,30.4124053 132.594096,30.4124053 C128.999283,30.4124053 126.468987,27.9008807 126.468987,24.1664353 C126.468987,20.4821168 129.011759,17.9207534 132.466435,17.9207534 C135.771111,17.9207534 138.110206,20.4564772 138.147053,24.1286962 Z M128.642703,23.2324639 L136.026142,23.2324639 C135.758635,21.1130228 134.399337,19.7500929 132.429298,19.7500929 C130.306066,19.7500929 128.947928,21.1885011 128.642703,23.2324639 Z M124.895276,18.1726837 C125.421587,18.1726837 125.777587,18.7047766 125.57507,19.1867427 L121.134213,29.7234502 C121.019029,29.9948262 120.751811,30.1722865 120.45471,30.1722865 L118.994734,30.1722865 C118.697342,30.1722865 118.430124,29.9956904 118.31494,29.7243144 L113.851742,19.1873189 C113.646904,18.7056409 114.003775,18.1726837 114.530085,18.1726837 L115.187249,18.1726837 C115.486381,18.1726837 115.75592,18.353313 115.869074,18.6290103 L119.736907,28.0776208 L123.616347,18.628146 C123.72921,18.3524487 123.998749,18.1726837 124.297882,18.1726837 L124.895276,18.1726837 Z M112.1092,13.3866706 C112.149239,14.1768877 111.496428,14.8639703 110.701739,14.9028618 C109.851344,14.9446341 109.162556,14.3128638 109.162556,13.4661821 C109.162556,12.6333285 109.809274,11.9900348 110.622532,11.9900348 C111.423313,11.9900348 112.069161,12.5935727 112.1092,13.3866706 Z M111.678403,18.9047076 L111.678403,29.4281631 C111.678403,29.8326344 111.349386,30.160187 110.942322,30.160187 L110.343767,30.160187 C109.936703,30.160187 109.607686,29.8326344 109.607686,29.4281631 L109.607686,18.9047076 C109.607686,18.5005244 109.936703,18.1726837 110.343767,18.1726837 L110.942322,18.1726837 C111.349386,18.1726837 111.678403,18.5005244 111.678403,18.9047076 Z M107.353224,28.6135164 C107.576341,28.9687252 107.455063,29.4362871 107.087167,29.6414036 C106.267527,30.0968659 105.277285,30.4123189 104.117602,30.4123189 C101.51216,30.4123189 99.9369991,28.9862984 99.9369991,25.9325978 L99.9369991,20.0530718 L98.0943307,20.0530718 C97.6872666,20.0530718 97.3573794,19.7255192 97.3573794,19.321336 L97.3573794,18.9047652 C97.3573794,18.500582 97.6872666,18.1727413 98.0943307,18.1727413 L99.9369991,18.1727413 L99.9369991,15.1446803 C99.9369991,14.7404971 100.267176,14.4126564 100.67424,14.4126564 L101.284111,14.4126564 C101.691175,14.4126564 102.021063,14.7404971 102.021063,15.1446803 L102.021063,18.1727413 L106.354858,18.1727413 C106.761922,18.1727413 107.0921,18.500582 107.0921,18.9047652 L107.0921,19.321336 C107.0921,19.7255192 106.761922,20.0530718 106.354858,20.0530718 L102.021063,20.0530718 L102.021063,25.8945706 C102.021063,27.6988467 102.986643,28.4818616 104.296327,28.4818616 C104.961614,28.4818616 105.607462,28.2957587 106.181066,28.0099784 C106.522558,27.8405845 106.936876,27.9529376 107.139392,28.2744404 L107.353224,28.6135164 Z M96.3791201,28.0092294 C96.6567824,28.3183446 96.6208053,28.7922443 96.3019433,29.0595872 C95.2470004,29.9437199 93.876387,30.4124341 92.3630256,30.4124341 C88.627495,30.4124341 86.0971988,27.7375653 86.0971988,24.1664641 C86.0971988,20.595363 88.627495,17.9204941 92.3630256,17.9204941 C93.8723251,17.9204941 95.2562848,18.377973 96.3019433,19.2693079 C96.6216757,19.5415482 96.647498,20.0246667 96.3585202,20.3288844 L95.9967178,20.707428 C95.7376243,20.9811087 95.3117012,21.0119338 95.0116982,20.7831944 C94.2352881,20.1931964 93.3634225,19.8633391 92.311381,19.8633391 C89.9867929,19.8633391 88.2204309,21.6549395 88.2204309,24.1664641 C88.2204309,26.6768365 89.9867929,28.4819768 92.311381,28.4819768 C93.3500762,28.4819768 94.2785187,28.1112115 95.0453543,27.5425318 C95.3540614,27.3140804 95.7857872,27.3506672 96.0416892,27.6355832 L96.3791201,28.0092294 Z M85.2030796,29.1526098 C85.3992131,29.6334236 85.0435035,30.160331 84.5203842,30.160331 L83.7120588,30.160331 C83.4117657,30.160331 83.1413568,29.9785494 83.028493,29.7016997 L81.2569085,25.3392292 L72.6293559,25.3392292 L70.8690868,29.7008355 C70.7570934,29.977397 70.4866845,30.160331 70.1852308,30.160331 L69.4532118,30.160331 C68.9309629,30.160331 68.5740928,29.6334236 68.771677,29.1526098 L75.4033682,12.9509998 C75.5165221,12.6753024 75.7857705,12.4946732 76.0860636,12.4946732 L77.8770874,12.4946732 C78.17622,12.4946732 78.4457585,12.6753024 78.5589124,12.9509998 L85.2030796,29.1526098 Z M80.4065131,23.2324639 L76.9498054,14.6904567 L73.4794611,23.2324639 L80.4065131,23.2324639 Z" id="logotype" style="outline: none;"></path>
              <g id="symbol">
                <path class="st0" d="M16.2184174,7.8723887 L13.5377938,13.1671404 C15.6890208,14.6015106 17.5870581,16.3494805 19.1942815,18.0974505 L22.0997659,12.3343238 C22.3379058,11.8448023 22.8283502,11.5352518 23.3652717,11.5352518 L24.5338395,11.5352518 C25.0712036,11.5352518 25.5616479,11.8448023 25.7997879,12.3343238 L28.6379911,17.9588727 C30.3722519,16.1519622 32.2981756,14.5569677 34.3732686,13.1999851 L31.6758247,7.8723887 C29.8251497,4.21762426 28.1090371,3.33216613 25.5895342,2.977173 C25.1477802,2.91508295 24.4572629,2.87009016 23.9468997,2.87009016 C23.4369792,2.87009016 22.7464619,2.91508295 22.3047079,2.977173 C19.0389151,3.43789919 17.6459292,5.05269047 16.2184174,7.8723887 Z M23.9030784,24.242116 C24.7175348,22.84374 25.6218469,21.5164527 26.6124736,20.2715021 L23.9495556,14.7931799 L21.2003228,20.4492237 C22.3330368,21.8799944 23.2431032,23.2081816 23.9030784,24.242116 Z M10.9780106,14.9322076 L10.3985958,14.5916122 C10.0714853,14.3994929 9.9506448,13.9801601 10.1232741,13.6386648 L13.7077673,6.55904912 L13.7082099,6.55904912 C15.4318474,3.1544446 17.4874643,0.758578462 21.9173985,0.134528446 C22.4884032,0.0539913496 23.3037448,5.68434189e-14 23.9468997,5.68434189e-14 C24.5904973,5.68434189e-14 25.4058389,0.0539913496 25.9768436,0.134528446 C30.4067778,0.758578462 32.4623947,3.1544446 34.1860322,6.55904912 L36.8148671,11.7503174 C41.1226328,9.43813784 45.9474013,8.08970388 50.9695869,7.91963113 C51.8367173,7.89038582 52.5560061,8.67056082 52.4094925,9.59516268 C52.299718,10.2849022 51.6809082,10.7658751 50.993932,10.7906211 C40.2586009,11.1802587 30.5090275,17.4432553 25.5364175,27.1508999 C25.5257941,27.1720466 25.512515,27.1904936 25.5005637,27.2098405 C25.5018916,27.2107404 25.5023343,27.2111903 25.5032195,27.2120901 C25.4912683,27.2332367 25.4762185,27.2516838 25.463382,27.2719305 C25.4470043,27.2975764 25.4310693,27.3232223 25.4133638,27.3470685 C25.0774005,27.8271416 24.5325115,28.1200447 23.9499982,28.1200447 L23.9442439,28.1200447 C23.4086503,28.1200447 22.902271,27.8703347 22.5702915,27.4433531 L22.3905799,27.2116402 C21.2569807,25.2396062 17.0837773,18.5239821 10.9780106,14.9322076 Z M50.9491812,18.2382329 C51.8251644,18.1950398 52.5488796,18.9684659 52.413432,19.8975671 C52.3125103,20.5886563 51.6994548,21.0718789 51.0129212,21.108773 C48.1813576,21.2599488 45.3874183,22.0797174 42.8298484,23.4187029 C42.8816372,23.5158873 42.9365244,23.6202706 42.9993792,23.7381517 C43.7979005,25.2458602 45.1829189,27.8815379 47.1159248,31.5713967 C48.1401921,33.5276833 48.1543566,35.5366114 47.1539918,37.2292402 C46.2067436,38.8336831 44.4224646,39.9112605 42.7147621,39.9112605 C42.7147621,39.9112605 40.0239578,39.9130602 39.9225934,39.9130602 C37.8364343,39.9130602 34.87562,39.7204911 33.0904557,35.2824021 L32.6305534,34.1413849 C31.973234,35.1330261 31.2632406,36.1125191 30.6045933,37.0011268 C28.4932038,39.8487205 26.0648846,39.9130602 24.0858442,39.9130602 L23.8065388,39.9130602 C21.829269,39.9130602 19.4009498,39.8491705 17.2900029,37.0011268 C16.5959445,36.0648268 15.9527896,35.0997314 15.3326519,34.1463341 L14.7895335,35.3183964 C13.0025986,39.7213909 10.0524076,39.9130602 7.97156019,39.9130602 C7.87019579,39.9130602 5.17939144,39.9112605 5.17939144,39.9112605 C3.47168898,39.9112605 1.68740993,38.8336831 0.740161813,37.2292402 C-0.259760385,35.5366114 -0.246038566,33.5276833 0.778228793,31.5713967 L3.37475098,26.6154407 L5.99783152,21.608193 C6.18285475,21.2549996 6.61619863,21.1186714 6.96057201,21.3130403 C9.59604645,22.8009519 13.5554551,25.9909408 17.1514568,31.7338207 C17.9318299,32.9810209 18.7015797,34.1368857 19.5448075,35.2738535 C20.8581184,37.0456696 22.1528383,37.0447698 23.9459702,37.0429701 C25.7395447,37.0438699 27.0364778,37.0452197 28.3497887,35.2738535 C29.396188,33.8619797 30.576707,32.218393 31.3933765,30.7381302 C35.366507,23.5352342 43.0427579,18.6283204 50.9491812,18.2382329 Z M44.6234228,32.9202806 C42.1685452,28.2338314 40.9805013,25.9792427 40.4055129,24.8949164 C38.0590819,26.5421025 36.0123177,28.6567637 34.4639654,31.120119 L35.7033555,34.1953763 C36.8546603,37.0573677 38.2613681,37.0515187 40.2072105,37.0420702 L42.7147621,37.0411703 C43.3242765,37.0411703 44.2387693,36.5889928 44.73364,35.7516769 C45.2165595,34.9346079 45.1793778,33.9816605 44.6234228,32.9202806 Z M12.1907981,34.1962761 C12.1978803,34.1778291 13.1296361,32.1662014 13.5085353,31.3495822 C11.8986561,28.9528162 10.1520014,26.7054263 7.52139602,24.8062806 L5.86725292,27.9638747 L3.27073074,32.9207305 C2.71477577,33.9816605 2.67759407,34.9346079 3.16051355,35.7516769 C3.6553843,36.5889928 4.56987711,37.0411703 5.17939144,37.0411703 L7.68694312,37.0420702 C9.63499871,37.0515187 11.0394932,37.0573677 12.1907981,34.1962761 Z" id="logo_symbol"></path>
                <g id="senka-copy" transform="translate(3.270523, 23.415396)" fill-rule="nonzero" opacity="0.2">
                  <path class="st1" d="M11.0178769,12.9631811 C6.92420017,7.92649431 3.25158648,4.72749185 3.58303239e-05,3.36617367 C-0.0052215623,3.36397258 0.568084972,2.26920535 1.71995543,0.0818720131 C2.80589018,0.529727298 3.62900254,0.960463303 4.18929251,1.37408003 C7.1593155,3.56660753 9.38997065,6.38490293 12.0264233,10.7739671 C12.046288,10.8070372 11.7101059,11.5367752 11.0178769,12.9631811 Z" id="Combined-Shape"></path>
                  <path class="st1" d="M40.4104291,12.9988075 C36.2955323,7.94601231 32.6123086,4.73895562 29.360758,3.37763745 C29.3555006,3.37543635 29.9504376,2.25047852 31.1455689,0.00276394525 C32.1934649,0.581047526 32.9998908,1.07329976 33.5648466,1.47952064 C36.3205232,3.46093828 37.5477847,4.82251664 39.5136579,7.70152715 C40.2194394,8.73514023 40.7439867,9.61172052 41.3456136,10.7301178 C41.3639451,10.7641952 41.0522169,11.5204251 40.4104291,12.9988075 Z" id="Combined-Shape-Copy" transform="translate(35.353550, 6.500786) scale(-1, 1) translate(-35.353550, -6.500786) "></path>
                </g>
              </g>
            </g>
          </g>
        </svg>