<?xml version="1.0" encoding="utf-8"?>
<!-- Generator: Adobe Illustrator 24.0.1, SVG Export Plug-In . SVG Version: 6.00 Build 0)  -->
<svg version="1.1"
	 id="AC_logo" xmlns:cc="http://creativecommons.org/ns#" xmlns:dc="http://purl.org/dc/elements/1.1/" xmlns:inkscape="http://www.inkscape.org/namespaces/inkscape" xmlns:rdf="http://www.w3.org/1999/02/22-rdf-syntax-ns#" xmlns:sodipodi="http://sodipodi.sourceforge.net/DTD/sodipodi-0.dtd" xmlns:svg="http://www.w3.org/2000/svg"
	 xmlns="http://www.w3.org/2000/svg" xmlns:xlink="http://www.w3.org/1999/xlink" x="0px" y="0px" viewBox="0 0 55 40"
	 style="enable-background:new 0 0 55 40;" xml:space="preserve">
<style type="text/css">
	.st0{fill-rule:evenodd;clip-rule:evenodd;fill:#5D2BFF;}
	.st1{opacity:0.2;}
</style>
<sodipodi:namedview  bordercolor="#666666" borderopacity="1" gridtolerance="10" guidetolerance="10" id="namedview12" inkscape:current-layer="AC_logo" inkscape:cx="-26.099998" inkscape:cy="20" inkscape:pageopacity="0" inkscape:pageshadow="2" inkscape:window-height="817" inkscape:window-maximized="0" inkscape:window-width="1597" inkscape:window-x="0" inkscape:window-y="0" inkscape:zoom="1.6666667" objecttolerance="10" pagecolor="#ffffff" showgrid="false">
	</sodipodi:namedview>
<g id="g9">
	<g id="ac_logo_website_header_black">
		<g id="symbol">
			<path id="logo_symbol" inkscape:connector-curvature="0" class="st0" d="M16.2,7.9l-2.7,5.3c2.2,1.4,4,3.2,5.7,4.9l2.9-5.8
				c0.2-0.5,0.7-0.8,1.3-0.8h1.2c0.5,0,1,0.3,1.3,0.8l2.8,5.6c1.7-1.8,3.7-3.4,5.7-4.8l-2.7-5.3c-1.9-3.7-3.6-4.5-6.1-4.9
				c-0.4-0.1-1.1-0.1-1.6-0.1c-0.5,0-1.2,0-1.6,0.1C19,3.4,17.6,5.1,16.2,7.9z M23.9,24.2c0.8-1.4,1.7-2.7,2.7-4l-2.7-5.5l-2.7,5.7
				C22.3,21.9,23.2,23.2,23.9,24.2z M11,14.9l-0.6-0.3c-0.3-0.2-0.4-0.6-0.3-1l3.6-7.1h0c1.7-3.4,3.8-5.8,8.2-6.4
				c0.6-0.1,1.4-0.1,2-0.1c0.6,0,1.5,0.1,2,0.1c4.4,0.6,6.5,3,8.2,6.4l2.6,5.2c4.3-2.3,9.1-3.7,14.2-3.8c0.9,0,1.6,0.8,1.4,1.7
				c-0.1,0.7-0.7,1.2-1.4,1.2c-10.7,0.4-20.5,6.7-25.5,16.4c0,0,0,0,0,0.1c0,0,0,0,0,0c0,0,0,0,0,0.1c0,0,0,0.1-0.1,0.1
				c-0.3,0.5-0.9,0.8-1.5,0.8h0c-0.5,0-1-0.2-1.4-0.7l-0.2-0.2C21.3,25.2,17.1,18.5,11,14.9z M50.9,18.2c0.9,0,1.6,0.7,1.5,1.7
				c-0.1,0.7-0.7,1.2-1.4,1.2c-2.8,0.2-5.6,1-8.2,2.3c0.1,0.1,0.1,0.2,0.2,0.3c0.8,1.5,2.2,4.1,4.1,7.8c1,2,1,4,0,5.7
				c-0.9,1.6-2.7,2.7-4.4,2.7c0,0-2.7,0-2.8,0c-2.1,0-5-0.2-6.8-4.6l-0.5-1.1c-0.7,1-1.4,2-2,2.9c-2.1,2.8-4.5,2.9-6.5,2.9h-0.3
				c-2,0-4.4-0.1-6.5-2.9c-0.7-0.9-1.3-1.9-2-2.9l-0.5,1.2c-1.8,4.4-4.7,4.6-6.8,4.6c-0.1,0-2.8,0-2.8,0c-1.7,0-3.5-1.1-4.4-2.7
				c-1-1.7-1-3.7,0-5.7l2.6-5l2.6-5c0.2-0.4,0.6-0.5,1-0.3c2.6,1.5,6.6,4.7,10.2,10.4c0.8,1.2,1.6,2.4,2.4,3.5
				c1.3,1.8,2.6,1.8,4.4,1.8c1.8,0,3.1,0,4.4-1.8c1-1.4,2.2-3.1,3-4.5C35.4,23.5,43,18.6,50.9,18.2z M44.6,32.9
				c-2.5-4.7-3.6-6.9-4.2-8c-2.3,1.6-4.4,3.8-5.9,6.2l1.2,3.1c1.2,2.9,2.6,2.9,4.5,2.8l2.5,0c0.6,0,1.5-0.5,2-1.3
				C45.2,34.9,45.2,34,44.6,32.9z M12.2,34.2c0,0,0.9-2,1.3-2.8c-1.6-2.4-3.4-4.6-6-6.5L5.9,28l-2.6,5c-0.6,1.1-0.6,2-0.1,2.8
				c0.5,0.8,1.4,1.3,2,1.3l2.5,0C9.6,37.1,11,37.1,12.2,34.2z"/>
			<g id="senka-copy" transform="translate(3.270523,23.415396)" class="st1">
				<path id="Combined-Shape" inkscape:connector-curvature="0" d="M11,13c-4.1-5-7.8-8.2-11-9.6c0,0,0.6-1.1,1.7-3.3
					C2.8,0.5,3.6,1,4.2,1.4c3,2.2,5.2,5,7.8,9.4C12,10.8,11.7,11.5,11,13z"/>
				<path id="Combined-Shape-Copy" inkscape:connector-curvature="0" d="M30.3,13c4.1-5.1,7.8-8.3,11-9.6c0,0-0.6-1.1-1.8-3.4
					c-1,0.6-1.9,1.1-2.4,1.5c-2.8,2-4,3.3-5.9,6.2c-0.7,1-1.2,1.9-1.8,3C29.3,10.8,29.7,11.5,30.3,13z"/>
			</g>
		</g>
	</g>
</g>
</svg>
