<svg xmlns="http://www.w3.org/2000/svg" viewBox="0 0 239.79 233.79"><defs><style>.a{fill:#2a0034;}.b{fill:#ea77ff;}</style></defs><title>Element 1</title><rect class="a" x="10.85" y="10.5" width="218.18" height="213.35"/><path class="b" d="M0,0V233.79H239.79V0ZM229,223.84H10.85V10.5H229Z"/><path class="b" d="M62.94,55.49c0-.7.2-1.2,1-1.2,6.38-.29,15.77-.49,25.65-.49,27.64,0,39.72,15.57,39.72,35.53,0,26.05-18.37,37.13-40.92,37.13-3.79,0-5.09-.2-7.79-.2v39.32c0,.8-.3,1.2-1.19,1.2H64c-.8,0-1.2-.3-1.2-1.2C62.84,165.58,62.84,55.49,62.94,55.49Zm17.66,54.4c2.3.2,4.1.2,8.09.2,11.68,0,22.65-4.2,22.65-20.46,0-13-7.78-19.57-21.16-19.57-4,0-7.78.2-9.58.3Zm63.88-9.38c0-1.2,0-4.2-.5-9.89,0-.79.1-1,.8-1.29a100.39,100.39,0,0,1,36.53-7.09c.8,0,1.2.2,1.2,1V98.11c0,.8-.3,1-1.1,1-6.29-.3-15.37.5-18.86,2.09v64.48c0,.8-.3,1.2-1.2,1.2H145.68c-.8,0-1.2-.3-1.2-1.2V100.51Z"/></svg>