<?xml version="1.0" encoding="utf-8"?>
<!-- Generator: Adobe Illustrator 24.0.1, SVG Export Plug-In . SVG Version: 6.00 Build 0)  -->
<svg version="1.1"
	 id="svg64" xmlns:cc="http://creativecommons.org/ns#" xmlns:dc="http://purl.org/dc/elements/1.1/" xmlns:inkscape="http://www.inkscape.org/namespaces/inkscape" xmlns:rdf="http://www.w3.org/1999/02/22-rdf-syntax-ns#" xmlns:sodipodi="http://sodipodi.sourceforge.net/DTD/sodipodi-0.dtd" xmlns:svg="http://www.w3.org/2000/svg"
	 xmlns="http://www.w3.org/2000/svg" xmlns:xlink="http://www.w3.org/1999/xlink" x="0px" y="0px" viewBox="0 0 200 200"
	 style="enable-background:new 0 0 200 200;" xml:space="preserve">
<style type="text/css">
	.st0{fill:#2879FF;}
	.st1{fill:none;stroke:#FFFFFF;stroke-width:0.5382;stroke-opacity:0.2;}
	.st2{fill:url(#circle38_1_);}
	.st3{opacity:0.2;fill:#F1F3F4;enable-background:new    ;}
	.st4{opacity:0.1;enable-background:new    ;}
	.st5{fill:url(#path44_1_);}
	.st6{fill:url(#path46_1_);}
	.st7{fill:url(#path48_1_);}
	.st8{fill:none;stroke:#FFFFFF;stroke-width:2.1527;}
	.st9{fill:none;stroke:#FFFFFF;stroke-width:2.1528;stroke-miterlimit:4;}
	.st10{fill:#F1F3F4;}
</style>
<sodipodi:namedview  bordercolor="#666666" borderopacity="1" fit-margin-bottom="100" fit-margin-left="0" fit-margin-right="0" fit-margin-top="0" gridtolerance="10" guidetolerance="10" id="namedview66" inkscape:current-layer="g62" inkscape:cx="286.374" inkscape:cy="198.21" inkscape:pageopacity="0" inkscape:pageshadow="2" inkscape:window-height="761" inkscape:window-maximized="0" inkscape:window-width="1655" inkscape:window-x="0" inkscape:window-y="0" inkscape:zoom="0.546875" objecttolerance="10" pagecolor="#ffffff" showgrid="false">
	</sodipodi:namedview>
<title  id="title2">Chrome DevTools Logo</title>
<g id="g62" transform="translate(-33.626,-190.21)">
	<g id="g58" transform="translate(22.085999,180.30001)">
		<path id="rect28" class="st0" d="M31.5,14.9h160c8.3,0,15,6.7,15,15v160c0,8.3-6.7,15-15,15h-160c-8.3,0-15-6.7-15-15v-160
			C16.5,21.6,23.2,14.9,31.5,14.9z"/>
		<g id="g36">
			<path id="path30" inkscape:connector-curvature="0" class="st1" d="M-8.4-10.2l240,240 M231.5-10.2L-8.4,230 M146.2-10.2v240
				 M76.8-10.2v240 M231.5,144.6h-240 M231.5,75.2h-240"/>
			<circle id="circle32" class="st1" cx="111.5" cy="109.9" r="48.7"/>
			<path id="path34" inkscape:connector-curvature="0" class="st1" d="M-8.4,109.9h240 M111.5-10.2v240"/>
		</g>
		
			<radialGradient id="circle38_1_" cx="81.682" cy="-80.9934" r="1.2586" gradientTransform="matrix(1 0 0 1 -23.08 136)" gradientUnits="userSpaceOnUse">
			<stop  offset="0" style="stop-color:#FFFFFF;stop-opacity:0.12"/>
			<stop  offset="1" style="stop-color:#FFFFFF;stop-opacity:0"/>
		</radialGradient>
		<circle id="circle38" class="st2" cx="111.5" cy="109.9" r="75"/>
		<path id="path40" inkscape:connector-curvature="0" class="st3" d="M191.6,14.9H31.5c-8.3,0-15,6.7-15,15v1.2
			c0-8.3,6.7-14.9,15-15h160c8.3,0,15,6.7,15,15v-1.2C206.5,21.6,199.8,14.9,191.6,14.9L191.6,14.9z"/>
		<path id="path42" inkscape:connector-curvature="0" class="st4" d="M191.6,203.7H31.5c-8.3,0-15-6.7-15-15v1.2c0,8.3,6.7,15,15,15
			h160c8.3,0,14.9-6.7,15-15v-1.2C206.5,197,199.8,203.7,191.6,203.7L191.6,203.7z"/>
		
			<radialGradient id="path44_1_" cx="45.6219" cy="-51.4019" r="2.2286" gradientTransform="matrix(0.7631 0 0 1.3104 14.6031 135.9972)" gradientUnits="userSpaceOnUse">
			<stop  offset="0" style="stop-color:#1A237E;stop-opacity:0.2"/>
			<stop  offset="1" style="stop-color:#1A237E;stop-opacity:0"/>
		</radialGradient>
		<path id="path44" inkscape:connector-curvature="0" class="st5" d="M78.4,99.3c-2.7,8.9-1.7,18.6,2.8,26.6L47.9,68.6L78.4,99.3z"
			/>
		
			<radialGradient id="path46_1_" cx="158.3283" cy="-1.8001" r="2.5349" gradientTransform="matrix(0.7558 0 0 1.323 15.7641 136.0041)" gradientUnits="userSpaceOnUse">
			<stop  offset="0" style="stop-color:#1A237E;stop-opacity:0.12"/>
			<stop  offset="1" style="stop-color:#1A237E;stop-opacity:0"/>
		</radialGradient>
		<path id="path46" inkscape:connector-curvature="0" class="st6" d="M119.1,143.6c9.3-2.1,17.2-8.1,22-16.2l-33.2,58.1L119.1,143.6
			z"/>
		
			<radialGradient id="path48_1_" cx="146.6506" cy="-71.7716" r="0.5836" gradientTransform="matrix(1.2166 0 0 0.822 -57.5377 135.9936)" gradientUnits="userSpaceOnUse">
			<stop  offset="0" style="stop-color:#1A237E;stop-opacity:0.15"/>
			<stop  offset="1" style="stop-color:#1A237E;stop-opacity:0"/>
		</radialGradient>
		<path id="path48" inkscape:connector-curvature="0" class="st7" d="M111.9,75.6h66.6l-41.8,11.1c10.9,12,12,29.9,2.4,43
			c-9.4,13.1-26.7,17.8-41.6,11.4s-22.8-22.6-19.5-38.3c3.3-15.9,17.3-27.1,33.5-27.1H111.9z"/>
		<path id="path50" inkscape:connector-curvature="0" class="st8" d="M111.5,183.7c40.8,0,73.8-33,73.8-73.8s-33-73.8-73.8-73.8
			s-73.8,33-73.8,73.8S70.8,183.7,111.5,183.7z"/>
		<circle id="circle52" class="st8" cx="111.5" cy="109.9" r="33.7"/>
		<ellipse id="circle54" class="st9" cx="111.5" cy="110" rx="23.8" ry="23.8"/>
		<path id="path56" inkscape:connector-curvature="0" class="st10" d="M111.5,74.8h66.3v2.4h-66.3V74.8z M106.6,183.5l33.1-57.4
			l2.2,1.2l-33.1,57.4L106.6,183.5z M48.1,70.1l2.2-1.2l33.1,57.4l-2.2,1.2L48.1,70.1z"/>
	</g>
</g>
</svg>
