<?xml version="1.0" encoding="UTF-8" standalone="no"?>
<svg
   xmlns:dc="http://purl.org/dc/elements/1.1/"
   xmlns:cc="http://creativecommons.org/ns#"
   xmlns:rdf="http://www.w3.org/1999/02/22-rdf-syntax-ns#"
   xmlns:svg="http://www.w3.org/2000/svg"
   xmlns="http://www.w3.org/2000/svg"
   xmlns:sodipodi="http://sodipodi.sourceforge.net/DTD/sodipodi-0.dtd"
   xmlns:inkscape="http://www.inkscape.org/namespaces/inkscape"
   width="200"
   height="200"
   viewBox="0 0 200 200"
   version="1.1"
   id="svg64"
   sodipodi:docname="devtools-logo.svg"
   inkscape:version="0.92.1 r15371">
  <metadata
     id="metadata68">
    <rdf:RDF>
      <cc:Work
         rdf:about="">
        <dc:format>image/svg+xml</dc:format>
        <dc:type
           rdf:resource="http://purl.org/dc/dcmitype/StillImage" />
        <dc:title>Chrome DevTools Logo</dc:title>
      </cc:Work>
    </rdf:RDF>
  </metadata>
  <sodipodi:namedview
     pagecolor="#ffffff"
     bordercolor="#666666"
     borderopacity="1"
     objecttolerance="10"
     gridtolerance="10"
     guidetolerance="10"
     inkscape:pageopacity="0"
     inkscape:pageshadow="2"
     inkscape:window-width="1655"
     inkscape:window-height="761"
     id="namedview66"
     showgrid="false"
     fit-margin-top="0"
     fit-margin-left="0"
     fit-margin-right="0"
     fit-margin-bottom="100"
     inkscape:zoom="0.546875"
     inkscape:cx="286.374"
     inkscape:cy="198.21"
     inkscape:window-x="0"
     inkscape:window-y="0"
     inkscape:window-maximized="0"
     inkscape:current-layer="g62" />
  <title
     id="title2">Chrome DevTools Logo</title>
  <defs
     id="defs24">
    <radialGradient
       cx="62.629761"
       cy="60.629704"
       fx="62.629761"
       fy="60.629704"
       r="1.1693983"
       id="a"
       gradientUnits="userSpaceOnUse">
      <stop
         stop-color="#FFF"
         stop-opacity=".12"
         offset="0%"
         id="stop4" />
      <stop
         stop-color="#FFF"
         stop-opacity="0"
         offset="100%"
         id="stop6" />
    </radialGradient>
    <radialGradient
       cx="70.890884"
       cy="55.937141"
       fx="70.890884"
       fy="55.937141"
       r="2.070493"
       gradientTransform="scale(0.76313718,1.3103804)"
       id="b"
       gradientUnits="userSpaceOnUse">
      <stop
         stop-color="#1A237E"
         stop-opacity=".2"
         offset="0%"
         id="stop9" />
      <stop
         stop-color="#1A237E"
         stop-opacity="0"
         offset="100%"
         id="stop11" />
    </radialGradient>
    <radialGradient
       cx="177.30379"
       cy="101.02958"
       fx="177.30379"
       fy="101.02958"
       r="2.3550508"
       gradientTransform="scale(0.75584145,1.3230288)"
       id="c"
       gradientUnits="userSpaceOnUse">
      <stop
         stop-color="#1A237E"
         stop-opacity=".12"
         offset="0%"
         id="stop14" />
      <stop
         stop-color="#1A237E"
         stop-opacity="0"
         offset="100%"
         id="stop16" />
    </radialGradient>
    <radialGradient
       cx="99.036293"
       cy="98.626549"
       fx="99.036293"
       fy="98.626549"
       r="0.54226577"
       gradientTransform="scale(1.2166117,0.82195494)"
       id="d"
       gradientUnits="userSpaceOnUse">
      <stop
         stop-color="#1A237E"
         stop-opacity=".15"
         offset="0%"
         id="stop19" />
      <stop
         stop-color="#1A237E"
         stop-opacity="0"
         offset="100%"
         id="stop21" />
    </radialGradient>
  </defs>
  <g
     id="g62"
     style="fill:none;fill-rule:evenodd"
     transform="translate(-33.626,-190.21)">
    <path
       d="M 33.626,-7.26 H 607.079 V 390.21 H 33.626 Z"
       id="path26"
       inkscape:connector-curvature="0" />
    <g
       transform="translate(22.085999,180.30001)"
       id="g58">
      <rect
         x="23.540001"
         y="23.370001"
         width="176.53999"
         height="176.53999"
         rx="13.94"
         id="rect28"
         style="fill:#2879ff;fill-rule:nonzero" />
      <g
         id="g36"
         style="stroke:#ffffff;stroke-width:0.5;stroke-opacity:0.2">
        <path
           d="m 0.31,0.14 223,223 m 0,-223 -223,223 M 144,0.14 v 223 M 79.58,0.14 v 223 m 143.73,-79.27 h -223 m 223,-64.46 h -223"
           id="path30"
           inkscape:connector-curvature="0" />
        <circle
           cx="111.81"
           cy="111.64"
           r="45.299999"
           id="circle32" />
        <path
           d="m 0.31,111.64 h 223 M 111.81,0.14 v 223"
           id="path34"
           inkscape:connector-curvature="0" />
      </g>
      <circle
         cx="111.81"
         cy="111.64"
         r="69.690002"
         id="circle38"
         style="fill:url(#a);fill-rule:nonzero" />
      <path
         d="M 186.15,23.37 H 37.48 C 29.799,23.403 23.578,29.619 23.54,37.3 v 1.16 c 0.038,-7.681 6.259,-13.897 13.94,-13.93 h 148.67 c 7.685,0.033 13.907,6.255 13.94,13.94 V 37.3 c -0.033,-7.685 -6.255,-13.907 -13.94,-13.94 z"
         id="path40"
         inkscape:connector-curvature="0"
         style="opacity:0.2;fill:#f1f3f4;fill-rule:nonzero" />
      <path
         d="M 186.15,198.75 H 37.48 C 29.795,198.717 23.573,192.495 23.54,184.81 V 186 c 0.033,7.685 6.255,13.907 13.94,13.94 h 148.67 c 7.681,-0.038 13.897,-6.259 13.93,-13.94 v -1.16 c -0.033,7.685 -6.255,13.907 -13.94,13.94 z"
         id="path42"
         inkscape:connector-curvature="0"
         style="opacity:0.1;fill:#000000;fill-rule:nonzero" />
      <path
         d="m 81,101.74 a 31.89,31.89 0 0 0 2.6,24.79 L 52.6,73.3 Z"
         id="path44"
         inkscape:connector-curvature="0"
         style="fill:url(#b);fill-rule:nonzero" />
      <path
         d="m 118.75,143 a 31.84,31.84 0 0 0 20.43,-15.1 l -30.85,54 z"
         id="path46"
         inkscape:connector-curvature="0"
         style="fill:url(#c);fill-rule:nonzero" />
      <path
         d="M 112.15,79.7 H 174 l -38.82,10.37 c 10.12,11.108 11.08,27.786 2.302,39.982 -8.78,12.196 -24.9,16.58 -38.646,10.508 C 85.09,134.488 77.473,119.62 80.576,104.917 83.678,90.213 96.653,79.69 111.68,79.69 Z"
         id="path48"
         inkscape:connector-curvature="0"
         style="fill:url(#d);fill-rule:nonzero" />
      <path
         d="m 111.81,180.16 c 37.848,0 68.53,-30.682 68.53,-68.53 0,-37.848 -30.682,-68.53 -68.53,-68.53 -37.848,0 -68.53,30.682 -68.53,68.53 0,37.848 30.682,68.53 68.53,68.53 z"
         id="path50"
         inkscape:connector-curvature="0"
         style="stroke:#ffffff;stroke-width:2" />
      <circle
         cx="111.81"
         cy="111.64"
         r="31.360001"
         id="circle52"
         style="stroke:#ffffff;stroke-width:2" />
      <circle
         cx="111.81"
         cy="111.64"
         r="22.07"
         id="circle54"
         style="stroke:#ffffff;stroke-width:2" />
      <path
         d="m 111.81,79.12 h 61.56 v 2.32 h -61.56 z m -4.633,100.931 30.78,-53.312 2.009,1.16 -30.78,53.312 z M 52.86,74.585 l 2.01,-1.16 30.78,53.313 -2.01,1.16 z"
         id="path56"
         inkscape:connector-curvature="0"
         style="fill:#f1f3f4;fill-rule:nonzero" />
    </g>
  </g>
</svg>
