<?xml version="1.0" encoding="utf-8"?>
<!-- Generator: Adobe Illustrator 24.0.1, SVG Export Plug-In . SVG Version: 6.00 Build 0)  -->
<svg version="1.1" id="Ebene_1" xmlns="http://www.w3.org/2000/svg" xmlns:xlink="http://www.w3.org/1999/xlink" x="0px" y="0px"
	 viewBox="0 0 100 93" style="enable-background:new 0 0 100 93;" xml:space="preserve">
<style type="text/css">
	.st0{fill-rule:evenodd;clip-rule:evenodd;fill:#FDB300;}
	.st1{fill-rule:evenodd;clip-rule:evenodd;fill:#EA6C00;}
	.st2{fill-rule:evenodd;clip-rule:evenodd;fill:#FDAD00;}
	.st3{fill-rule:evenodd;clip-rule:evenodd;fill:#FDD231;}
	.st4{fill-rule:evenodd;clip-rule:evenodd;fill:#FEEEB7;}
</style>
<g>
	<path class="st0" d="M23,6.3l27-2.8l27,2.8l20.9,27.8L50,89.5L2.1,34.2L23,6.3z"/>
	<path class="st1" d="M21.5,34.2L50,89.5L2.1,34.2 M78.5,34.2L50,89.5l47.9-55.3"/>
	<path class="st2" d="M21.5,34.2h57L50,89.5"/>
	<path class="st3" d="M50,3.5L23,6.3l-1.5,27.8 M50,3.5l27,2.8l1.5,27.8"/>
	<path class="st2" d="M97.9,34.2L77,6.3l1.5,27.8 M2.1,34.2L23,6.3l-1.5,27.8"/>
	<path class="st4" d="M50,3.5L21.5,34.2h57"/>
</g>
</svg>
