<?xml version="1.0" encoding="UTF-8" standalone="no"?>
<svg
   xmlns:dc="http://purl.org/dc/elements/1.1/"
   xmlns:cc="http://creativecommons.org/ns#"
   xmlns:rdf="http://www.w3.org/1999/02/22-rdf-syntax-ns#"
   xmlns:svg="http://www.w3.org/2000/svg"
   xmlns="http://www.w3.org/2000/svg"
   xmlns:sodipodi="http://sodipodi.sourceforge.net/DTD/sodipodi-0.dtd"
   xmlns:inkscape="http://www.inkscape.org/namespaces/inkscape"
   width="780"
   height="749"
   viewBox="1.464 25.444 155.42344 149.23"
   version="1.1"
   id="svg24"
   sodipodi:docname="slack_ohneText.svg"
   inkscape:version="0.92.1 r15371">
  <metadata
     id="metadata30">
    <rdf:RDF>
      <cc:Work
         rdf:about="">
        <dc:format>image/svg+xml</dc:format>
        <dc:type
           rdf:resource="http://purl.org/dc/dcmitype/StillImage" />
        <dc:title>background</dc:title>
      </cc:Work>
    </rdf:RDF>
  </metadata>
  <defs
     id="defs28" />
  <sodipodi:namedview
     pagecolor="#ffffff"
     bordercolor="#666666"
     borderopacity="1"
     objecttolerance="10"
     gridtolerance="10"
     guidetolerance="10"
     inkscape:pageopacity="0"
     inkscape:pageshadow="2"
     inkscape:window-width="1800"
     inkscape:window-height="792"
     id="namedview26"
     showgrid="false"
     inkscape:zoom="0.14"
     inkscape:cx="1250"
     inkscape:cy="374.5"
     inkscape:window-x="0"
     inkscape:window-y="0"
     inkscape:window-maximized="0"
     inkscape:current-layer="svg24" />
  <title
     id="title2">background</title>
  <title
     id="title4">Layer 1</title>
  <path
     d="M 13.997,105.78 C 8.503,105.822 3.849,102.548 2.133,97.438 A 13.67,13.67 0 0 1 1.955,96.855 C 0.085,90.311 3.711,83.465 10.21,81.273 L 114.45,46.35 a 14.128,14.128 0 0 1 3.807,-0.556 c 5.64,-0.044 10.422,3.302 12.18,8.52 l 0.156,0.504 c 1.95,6.816 -2.895,12.9 -8.7,14.85 -0.004,0.003 -1.06,0.36 -103.662,35.391 a 13.49,13.49 0 0 1 -4.234,0.721 z"
     id="path8"
     inkscape:connector-curvature="0"
     style="fill:#70cadb" />
  <path
     d="m 31.372,157.045 c -5.537,0.04 -10.207,-3.188 -11.903,-8.225 a 13.34,13.34 0 0 1 -0.18,-0.579 c -1.896,-6.622 1.726,-13.54 8.247,-15.735 L 131.78,97.263 c 1.347,-0.45 2.738,-0.68 4.137,-0.693 5.552,-0.042 10.43,3.35 12.151,8.444 l 0.16,0.53 c 1.007,3.521 0.412,7.478 -1.59,10.601 -1.492,2.322 -6.198,4.366 -6.198,4.366 L 35.8,156.29 a 14.356,14.356 0 0 1 -4.428,0.757 z"
     id="path10"
     inkscape:connector-curvature="0"
     style="fill:#e01765" />
  <path
     d="m 118.148,157.268 a 12.798,12.798 0 0 1 -12.255,-8.723 l -34.79,-103.34 -0.174,-0.58 c -1.885,-6.59 1.74,-13.464 8.237,-15.654 1.3,-0.437 2.644,-0.665 3.997,-0.677 2.01,-0.015 3.955,0.438 5.787,1.343 a 12.772,12.772 0 0 1 6.449,7.392 l 34.787,103.331 0.101,0.332 c 1.954,6.842 -1.663,13.72 -8.16,15.91 a 12.935,12.935 0 0 1 -3.979,0.666 z"
     id="path12"
     inkscape:connector-curvature="0"
     style="fill:#e8a723" />
  <path
     d="m 66.435,174.674 a 12.803,12.803 0 0 1 -12.26,-8.73 L 19.394,62.608 a 12.797,12.797 0 0 1 8.051,-16.23 12.96,12.96 0 0 1 3.985,-0.668 12.796,12.796 0 0 1 12.257,8.723 l 34.782,103.34 a 12.797,12.797 0 0 1 -8.06,16.233 12.88,12.88 0 0 1 -3.978,0.667 h 0.004 z"
     id="path14"
     inkscape:connector-curvature="0"
     style="fill:#3eb890" />
  <path
     d="m 100.997,133.996 24.258,-8.294 -7.93,-23.55 -24.286,8.207 z"
     id="path16"
     inkscape:connector-curvature="0"
     style="fill:#cc2027" />
  <path
     d="m 49.364,151.65 24.256,-8.293 -7.99,-23.73 -24.28,8.21 z"
     id="path18"
     inkscape:connector-curvature="0"
     style="fill:#361238" />
  <path
     d="m 83.727,82.7 24.26,-8.283 -7.837,-23.275 -24.305,8.143 z"
     id="path20"
     inkscape:connector-curvature="0"
     style="fill:#65863a" />
  <path
     d="M 32.088,100.33 56.348,92.047 48.415,68.475 24.11,76.617 Z"
     id="path22"
     inkscape:connector-curvature="0"
     style="fill:#1a937d" />
</svg>
