<?xml version="1.0" encoding="utf-8"?>
<!-- Generator: Adobe Illustrator 24.0.1, SVG Export Plug-In . SVG Version: 6.00 Build 0)  -->
<svg version="1.1" id="Ebene_1" xmlns="http://www.w3.org/2000/svg" xmlns:xlink="http://www.w3.org/1999/xlink" x="0px" y="0px"
	 viewBox="0 0 64 64" style="enable-background:new 0 0 64 64;" xml:space="preserve">
<style type="text/css">
	.st0{fill:#FFFFFF;}
	.st1{fill:#252525;}
</style>
<g>
	<rect y="0" class="st0" width="64" height="64"/>
</g>
<g>
	<g>
		<path class="st1" d="M62.34,39.98c0,1.47-0.31,2.74-0.92,3.8c-0.62,1.06-1.46,1.93-2.54,2.6c-1.08,0.68-2.33,1.18-3.76,1.5
			c-1.43,0.32-2.94,0.48-4.54,0.48H34.5V15.63h19c1.14,0,2.17,0.25,3.09,0.74c0.92,0.49,1.71,1.13,2.35,1.91
			c0.65,0.78,1.14,1.68,1.5,2.67c0.35,1,0.53,2.02,0.53,3.07c0,1.54-0.39,3-1.18,4.4c-0.79,1.4-1.96,2.45-3.53,3.16
			c1.88,0.55,3.36,1.51,4.45,2.88C61.8,35.83,62.34,37.67,62.34,39.98z M43.49,23.29v5.03h6.13c0.61,0,1.18-0.17,1.68-0.51
			c0.51-0.34,0.76-1.01,0.76-2.03c0-0.89-0.21-1.53-0.65-1.91c-0.43-0.38-0.94-0.58-1.52-0.58H43.49z M53.21,38.13
			c0-0.8-0.21-1.47-0.65-2c-0.43-0.54-0.98-0.81-1.66-0.81h-7.42v5.49h7.1c0.74,0,1.36-0.23,1.87-0.69
			C52.96,39.65,53.21,38.99,53.21,38.13z"/>
	</g>
	<g>
		<path class="st1" d="M1.66,31.68c0-2,0.38-3.96,1.13-5.9c0.75-1.94,1.85-3.67,3.3-5.21c1.44-1.54,3.2-2.78,5.26-3.73
			c2.06-0.95,4.41-1.43,7.05-1.43c3.17,0,5.91,0.65,8.23,1.96c2.32,1.31,4.05,3.04,5.19,5.19l-6.87,4.89
			c-0.31-0.8-0.71-1.46-1.22-1.98c-0.51-0.52-1.07-0.94-1.68-1.24c-0.62-0.31-1.25-0.52-1.91-0.65c-0.66-0.12-1.3-0.18-1.91-0.18
			c-1.29,0-2.41,0.25-3.34,0.76c-0.94,0.51-1.71,1.17-2.31,1.98c-0.6,0.81-1.05,1.74-1.34,2.77c-0.29,1.03-0.44,2.05-0.44,3.07
			c0,1.14,0.17,2.23,0.51,3.27c0.34,1.05,0.83,1.97,1.48,2.77s1.44,1.44,2.37,1.91c0.94,0.48,1.99,0.71,3.16,0.71
			c0.61,0,1.25-0.07,1.89-0.21c0.65-0.14,1.27-0.37,1.87-0.69c0.6-0.32,1.14-0.74,1.61-1.24c0.48-0.51,0.85-1.13,1.13-1.87
			l7.33,4.38c-0.49,1.2-1.24,2.27-2.24,3.23c-1,0.95-2.14,1.75-3.41,2.4c-1.28,0.65-2.64,1.14-4.1,1.48
			c-1.46,0.34-2.88,0.51-4.26,0.51c-2.43,0-4.65-0.48-6.66-1.45c-2.01-0.97-3.75-2.25-5.21-3.85c-1.46-1.6-2.59-3.41-3.39-5.44
			C2.06,35.83,1.66,33.77,1.66,31.68z"/>
	</g>
</g>
</svg>
